<svg width="400" height="250" viewBox="0 0 400 250" xmlns="http://www.w3.org/2000/svg">
  <!-- Background -->
  <rect width="400" height="250" fill="#f8f9fa"/>
  <rect x="0" y="0" width="400" height="50" fill="#ff8c42"/>
  
  <!-- Device outline -->
  <rect x="40" y="35" width="320" height="200" rx="8" fill="#1a1a1a" stroke="#333" stroke-width="2"/>
  <rect x="50" y="45" width="300" height="175" rx="4" fill="#ffffff"/>
  
  <!-- Browser bar -->
  <rect x="50" y="45" width="300" height="25" fill="#f0f0f0"/>
  <circle cx="62" cy="57.5" r="4" fill="#ff5f56"/>
  <circle cx="78" cy="57.5" r="4" fill="#ffbd2e"/>
  <circle cx="94" cy="57.5" r="4" fill="#27ca3f"/>
  
  <!-- Header -->
  <rect x="60" y="80" width="80" height="12" fill="#ff6b35"/>
  <rect x="250" y="82" width="80" height="8" fill="#ddd"/>
  
  <!-- Main content -->
  <rect x="60" y="100" width="100" height="6" fill="#999"/>
  <rect x="60" y="115" width="150" height="16" fill="#333"/>
  <rect x="60" y="140" width="180" height="6" fill="#666"/>
  
  <!-- Buttons -->
  <rect x="60" y="160" width="70" height="20" rx="10" fill="#ff6b35"/>
  <rect x="140" y="160" width="70" height="20" rx="10" fill="#ddd"/>
  
  <!-- Profile area -->
  <circle cx="280" cy="140" r="30" fill="#ff6b35" opacity="0.2"/>
  <circle cx="280" cy="140" r="20" fill="#ff6b35"/>
  <circle cx="280" cy="135" r="6" fill="white"/>
  <path d="M270 150 Q280 145 290 150" fill="white"/>
  
  <!-- Skills section -->
  <rect x="50" y="190" width="300" height="25" fill="#f8f9fa"/>
  <rect x="60" y="200" width="40" height="8" fill="#333"/>
  <rect x="110" y="202" width="25" height="4" fill="#ddd"/>
  <rect x="145" y="202" width="30" height="4" fill="#ddd"/>
  <rect x="185" y="202" width="35" height="4" fill="#ddd"/>
  
  <!-- Decorative -->
  <circle cx="370" cy="30" r="12" fill="#ff8c42"/>
  <rect x="366" y="26" width="8" height="8" fill="white"/>
</svg>